<svg xmlns="http://www.w3.org/2000/svg" viewBox="0 0 200 220" fill="none">
  <!-- Arch / window frame -->
  <path d="M20 210 L20 100 A80 80 0 0 1 180 100 L180 210 Z" stroke="#7aa3bf" stroke-width="2.5" fill="none" opacity="0.9"/>

  <!-- Trunk (Y shape) -->
  <path d="M100 195 L100 145" stroke="#7aa3bf" stroke-width="3" stroke-linecap="round"/>
  <path d="M100 145 L75 115" stroke="#7aa3bf" stroke-width="2.5" stroke-linecap="round"/>
  <path d="M100 145 L125 115" stroke="#7aa3bf" stroke-width="2.5" stroke-linecap="round"/>

  <!-- Left branch extensions -->
  <path d="M75 115 L60 100" stroke="#7aa3bf" stroke-width="2" stroke-linecap="round"/>
  <path d="M75 115 L65 130" stroke="#7aa3bf" stroke-width="1.5" stroke-linecap="round"/>
  <path d="M60 100 L50 88" stroke="#7aa3bf" stroke-width="1.5" stroke-linecap="round"/>
  <path d="M60 100 L72 92" stroke="#7aa3bf" stroke-width="1.5" stroke-linecap="round"/>

  <!-- Right branch extensions -->
  <path d="M125 115 L140 100" stroke="#7aa3bf" stroke-width="2" stroke-linecap="round"/>
  <path d="M125 115 L135 130" stroke="#7aa3bf" stroke-width="1.5" stroke-linecap="round"/>
  <path d="M140 100 L150 88" stroke="#7aa3bf" stroke-width="1.5" stroke-linecap="round"/>
  <path d="M140 100 L128 92" stroke="#7aa3bf" stroke-width="1.5" stroke-linecap="round"/>

  <!-- Leaves - left side -->
  <ellipse cx="48" cy="82" rx="8" ry="12" fill="#7aa3bf" opacity="0.85" transform="rotate(-35 48 82)"/>
  <ellipse cx="58" cy="70" rx="7" ry="11" fill="#7aa3bf" opacity="0.8" transform="rotate(-20 58 70)"/>
  <ellipse cx="72" cy="65" rx="7" ry="10" fill="#7aa3bf" opacity="0.85" transform="rotate(-10 72 65)"/>
  <ellipse cx="55" cy="95" rx="7" ry="10" fill="#7aa3bf" opacity="0.75" transform="rotate(-40 55 95)"/>
  <ellipse cx="42" cy="100" rx="6" ry="9" fill="#7aa3bf" opacity="0.7" transform="rotate(-50 42 100)"/>
  <ellipse cx="65" cy="108" rx="6" ry="9" fill="#7aa3bf" opacity="0.75" transform="rotate(-25 65 108)"/>
  <ellipse cx="60" cy="125" rx="6" ry="9" fill="#7aa3bf" opacity="0.7" transform="rotate(-15 60 125)"/>
  <ellipse cx="45" cy="115" rx="5" ry="8" fill="#7aa3bf" opacity="0.65" transform="rotate(-45 45 115)"/>
  <ellipse cx="68" cy="80" rx="6" ry="9" fill="#7aa3bf" opacity="0.8" transform="rotate(-30 68 80)"/>

  <!-- Leaves - right side -->
  <ellipse cx="152" cy="82" rx="8" ry="12" fill="#7aa3bf" opacity="0.85" transform="rotate(35 152 82)"/>
  <ellipse cx="142" cy="70" rx="7" ry="11" fill="#7aa3bf" opacity="0.8" transform="rotate(20 142 70)"/>
  <ellipse cx="128" cy="65" rx="7" ry="10" fill="#7aa3bf" opacity="0.85" transform="rotate(10 128 65)"/>
  <ellipse cx="145" cy="95" rx="7" ry="10" fill="#7aa3bf" opacity="0.75" transform="rotate(40 145 95)"/>
  <ellipse cx="158" cy="100" rx="6" ry="9" fill="#7aa3bf" opacity="0.7" transform="rotate(50 158 100)"/>
  <ellipse cx="135" cy="108" rx="6" ry="9" fill="#7aa3bf" opacity="0.75" transform="rotate(25 135 108)"/>
  <ellipse cx="140" cy="125" rx="6" ry="9" fill="#7aa3bf" opacity="0.7" transform="rotate(15 140 125)"/>
  <ellipse cx="155" cy="115" rx="5" ry="8" fill="#7aa3bf" opacity="0.65" transform="rotate(45 155 115)"/>
  <ellipse cx="132" cy="80" rx="6" ry="9" fill="#7aa3bf" opacity="0.8" transform="rotate(30 132 80)"/>

  <!-- Leaves - top center -->
  <ellipse cx="85" cy="62" rx="6" ry="10" fill="#7aa3bf" opacity="0.8" transform="rotate(-5 85 62)"/>
  <ellipse cx="100" cy="58" rx="6" ry="10" fill="#7aa3bf" opacity="0.85"/>
  <ellipse cx="115" cy="62" rx="6" ry="10" fill="#7aa3bf" opacity="0.8" transform="rotate(5 115 62)"/>
  <ellipse cx="90" cy="75" rx="6" ry="9" fill="#7aa3bf" opacity="0.75" transform="rotate(-8 90 75)"/>
  <ellipse cx="110" cy="75" rx="6" ry="9" fill="#7aa3bf" opacity="0.75" transform="rotate(8 110 75)"/>

  <!-- Heart in center -->
  <path d="M95 105 C90 98 80 98 80 105 C80 112 95 120 100 125 C105 120 120 112 120 105 C120 98 110 98 105 105 C103 102 97 102 95 105 Z" fill="#7aa3bf" opacity="0.8"/>
</svg>
